<?xml version="1.0" standalone="no"?>
<!DOCTYPE svg PUBLIC "-//W3C//DTD SVG 20010904//EN"
 "http://www.w3.org/TR/2001/REC-SVG-20010904/DTD/svg10.dtd">
<svg version="1.0" xmlns="http://www.w3.org/2000/svg"
 width="192.000000pt" height="192.000000pt" viewBox="0 0 192.000000 192.000000"
 preserveAspectRatio="xMidYMid meet">

<g transform="translate(0.000000,192.000000) scale(0.100000,-0.100000)"
fill="#000000" stroke="none">
<path d="M675 1675 c-62 -32 -95 -77 -95 -127 0 -35 7 -35 41 -2 24 23 30 25
65 15 50 -14 149 -14 175 -1 16 9 22 5 39 -22 l20 -33 0 32 c0 66 -37 123
-100 152 -51 23 -81 20 -145 -14z"/>
<path d="M659 1528 c-11 -40 0 -76 20 -64 16 10 13 36 -5 43 -13 5 -13 7 -2
14 10 7 10 9 1 9 -7 0 -13 -1 -14 -2z m21 -32 c0 -3 -4 -8 -10 -11 -5 -3 -10
-1 -10 4 0 6 5 11 10 11 6 0 10 -2 10 -4z"/>
<path d="M829 1522 c11 -8 11 -10 0 -15 -12 -5 -12 -6 0 -6 11 -1 11 -4 1 -16
-14 -17 -8 -31 10 -20 15 9 7 58 -11 63 -12 3 -12 2 0 -6z"/>
<path d="M670 1411 c-28 -28 -30 -28 -46 -10 -10 11 -19 17 -21 15 -10 -9 29
-66 64 -95 31 -26 46 -31 90 -31 41 0 58 5 82 26 18 15 31 35 31 49 0 14 -13
34 -31 49 -25 21 -41 26 -86 26 -47 0 -59 -4 -83 -29z m129 8 c37 -13 41 -41
9 -63 -46 -32 -118 -14 -118 30 0 38 49 54 109 33z"/>
<path d="M726 1388 c7 -11 46 -10 63 1 8 5 -1 8 -27 7 -22 0 -38 -4 -36 -8z"/>
<path d="M1110 1420 c13 -8 13 -10 1 -10 -11 0 -12 -3 -4 -11 6 -6 16 -8 22
-5 15 9 2 36 -18 36 -14 0 -14 -2 -1 -10z"/>
<path d="M965 1361 c-10 -17 15 -45 29 -31 7 7 5 15 -6 26 -11 11 -18 13 -23
5z"/>
<path d="M1115 1320 c-4 -7 -21 -18 -39 -26 -25 -11 -27 -13 -10 -14 24 0 73
35 63 45 -4 3 -10 1 -14 -5z"/>
<path d="M599 1248 c-23 -23 -54 -57 -69 -73 -31 -33 -46 -75 -36 -101 5 -14
9 -13 25 7 17 22 20 22 89 11 39 -7 84 -12 100 -12 17 0 37 -9 50 -23 l22 -23
-36 -47 c-20 -25 -45 -49 -55 -52 -27 -9 -24 -30 7 -43 54 -25 73 -151 32
-223 l-22 -39 -78 0 -78 0 0 -100 0 -100 34 0 c33 0 33 1 40 53 3 28 6 68 7
87 l1 35 9 -40 c4 -22 8 -61 8 -87 1 -47 2 -48 32 -48 30 0 31 -2 25 -31 -3
-17 -6 -35 -6 -40 0 -5 -11 -9 -25 -9 -14 0 -25 -4 -25 -10 0 -5 -1 -13 -2
-17 -2 -3 8 -7 22 -9 14 -1 43 -5 65 -9 l40 -7 0 239 c0 205 2 238 15 238 13
0 15 -30 18 -195 2 -131 -1 -202 -9 -216 -22 -42 -9 -59 50 -62 l54 -3 -7 50
c-3 27 -2 71 5 98 8 36 7 71 -2 139 -10 72 -10 107 0 167 10 61 10 79 -1 97
-11 18 -11 23 4 34 16 12 16 14 1 37 -9 13 -22 27 -29 32 -14 8 -17 97 -3 97
5 0 9 -11 9 -25 l0 -26 122 3 123 3 -3 40 c-2 29 -11 47 -33 68 -25 23 -38 27
-89 27 l-60 0 15 24 c15 23 14 26 -27 74 -24 28 -46 51 -50 51 -4 1 -19 -10
-33 -23 -46 -43 -121 -41 -179 5 l-27 21 -40 -44z"/>
<path d="M553 1040 c1 -11 5 -20 9 -20 11 0 10 28 -1 35 -6 3 -9 -4 -8 -15z"/>
<path d="M670 1048 c0 -4 4 -8 9 -8 6 0 12 4 15 8 3 5 -1 9 -9 9 -8 0 -15 -4
-15 -9z"/>
<path d="M1141 1008 c2 -21 -7 -48 -24 -75 -24 -38 -25 -43 -11 -57 18 -18 42
-20 64 -6 13 8 12 10 -2 10 -21 0 -23 28 -5 55 31 45 26 105 -9 105 -10 0 -14
-9 -13 -32z"/>
<path d="M490 969 c0 -55 17 -71 65 -61 l40 8 -35 17 c-20 9 -43 29 -52 45
l-17 27 -1 -36z"/>
<path d="M944 983 c4 -7 2 -13 -4 -13 -6 0 -8 -5 -4 -11 4 -8 9 -8 17 0 8 8 7
14 -2 24 -11 10 -13 10 -7 0z"/>
<path d="M1056 981 c-4 -7 -5 -15 -2 -18 9 -9 19 4 14 18 -4 11 -6 11 -12 0z"/>
<path d="M630 960 c-9 -6 -10 -10 -3 -10 6 0 15 5 18 10 8 12 4 12 -15 0z"/>
<path d="M1356 941 c-4 -5 -2 -12 3 -15 5 -4 12 -2 15 3 4 5 2 12 -3 15 -5 4
-12 2 -15 -3z"/>
<path d="M1246 921 c-4 -5 -2 -12 3 -15 5 -4 12 -2 15 3 4 5 2 12 -3 15 -5 4
-12 2 -15 -3z"/>
<path d="M977 908 c2 -5 17 -8 33 -8 16 0 31 3 33 8 3 4 -12 7 -33 7 -21 0
-36 -3 -33 -7z"/>
<path d="M1320 860 c-9 -6 -10 -10 -3 -10 6 0 15 5 18 10 8 12 4 12 -15 0z"/>
<path d="M1250 509 l0 -60 33 3 c30 3 32 6 38 48 5 34 6 37 7 14 2 -39 23 -67
48 -62 16 3 20 13 22 61 l3 57 -76 0 -75 0 0 -61z"/>
<path d="M557 343 c-15 -15 -5 -23 28 -23 24 0 35 5 35 15 0 15 -50 22 -63 8z"/>
</g>
</svg>
